# xmcd CD database file
#
# Track frame offsets:
#	150
#	45062
#	66866
#	96743
#	113615
#	131433
#	165078
#	199374
#	225259
#	248178
#	283049
#
# Disc length: 4208 seconds
#
# Revision: 5
# Processed by: cddbd v1.5.2PL0 Copyright (c) Steve Scherf et al.
# Submitted via: CDex 1.74
#
DISCID=8b106e0b
DTITLE=Various Artist - BT  Rare And Remixed  Disc 2
DYEAR=2001
DGENRE=Trance
TTITLE0=Sunblind (Ft. Jan Johnston) - BT
TTITLE1=Smartbomb (Plump DJs Mix) - BT
TTITLE2=Fibonacci Sequence - BT
TTITLE3=The Hip Hop Phenomenon - Tsunami One and BT
TTITLE4=Godspeed (Hybrid Mix) - BT
TTITLE5=Dreaming (Science Dept.'s Friends And Family Mix) - BT
TTITLE6=Blue Skies (Ft. Tori Amos) - BT
TTITLE7=Never Gonna Come Back Down (Timo Maas Mix) - BT
TTITLE8=Run To You (BT vs PvD Mix) - Dina Carrol
TTITLE9=I Love You (BT Mix) - Sarah McLachlan
TTITLE10=Flaming June - BT
EXTD=YEAR: 2001
EXTT0=
EXTT1=
EXTT2=
EXTT3=
EXTT4=
EXTT5=
EXTT6=
EXTT7=
EXTT8=
EXTT9=
EXTT10=
PLAYORDER=
